<svg
   viewBox="64 64 896 896"
   focusable="false">
  <g>
    <path d="m 625.9,115 c -5.9,0 -11.9,1.6 -17.4,5.3 L 254,352 H 90 c -8.8,0 -16,7.2 -16,16 v 288 c 0,8.8 7.2,16 16,16 h 164 l 354.5,231.7 c 5.5,3.6 11.6,5.3 17.4,5.3 16.7,0 32.1,-13.3 32.1,-32.1 V 147.1 C 658,128.3 642.6,115 625.9,115 Z M 586,803 293.4,611.7 275.4,600 H 146 V 424 H 275.4 L 293.3,412.3 586,221 Z m 314.42722,91.2896 c 6.23325,-6.1867 6.27026,-16.2553 0.0826,-22.48761 L 127.0682,96.850501 c -6.21709,-6.20224 -16.3561,-6.17722 -22.55833,0.0399 L 76.406643,124.91912 c -6.23332,6.18664 -6.27027,16.25532 -0.0826,22.48762 L 849.76565,922.35821 c 6.24911,6.19693 16.33118,6.17911 22.55833,-0.0399 z" />
  </g>
</svg>
